<svg width="25" height="25" viewBox="0 0 25 25" fill="none" xmlns="http://www.w3.org/2000/svg">
<path d="M9.39996 3.39999H4.39996C3.84768 3.39999 3.39996 3.84771 3.39996 4.39999V11.4C3.39996 11.9523 3.84768 12.4 4.39996 12.4H9.39996C9.95225 12.4 10.4 11.9523 10.4 11.4V4.39999C10.4 3.84771 9.95225 3.39999 9.39996 3.39999Z" stroke="white" stroke-width="2" stroke-linecap="round" stroke-linejoin="round"/>
<path d="M20.4 3.39999H15.4C14.8477 3.39999 14.4 3.84771 14.4 4.39999V7.39999C14.4 7.95228 14.8477 8.39999 15.4 8.39999H20.4C20.9522 8.39999 21.4 7.95228 21.4 7.39999V4.39999C21.4 3.84771 20.9522 3.39999 20.4 3.39999Z" stroke="white" stroke-width="2" stroke-linecap="round" stroke-linejoin="round"/>
<path d="M20.4 12.4H15.4C14.8477 12.4 14.4 12.8477 14.4 13.4V20.4C14.4 20.9523 14.8477 21.4 15.4 21.4H20.4C20.9522 21.4 21.4 20.9523 21.4 20.4V13.4C21.4 12.8477 20.9522 12.4 20.4 12.4Z" stroke="white" stroke-width="2" stroke-linecap="round" stroke-linejoin="round"/>
<path d="M9.39996 16.4H4.39996C3.84768 16.4 3.39996 16.8477 3.39996 17.4V20.4C3.39996 20.9523 3.84768 21.4 4.39996 21.4H9.39996C9.95225 21.4 10.4 20.9523 10.4 20.4V17.4C10.4 16.8477 9.95225 16.4 9.39996 16.4Z" stroke="white" stroke-width="2" stroke-linecap="round" stroke-linejoin="round"/>
</svg>
