<svg width="21" height="21" viewBox="0 0 21 21" fill="none" xmlns="http://www.w3.org/2000/svg">
<g clip-path="url(#clip0_1_71)">
<path d="M18.2451 5.87665C18.6857 5.43617 18.9332 4.83871 18.9333 4.2157C18.9334 3.59268 18.686 2.99516 18.2455 2.55457C17.805 2.11398 17.2075 1.86641 16.5845 1.86633C15.9615 1.86625 15.364 2.11367 14.9234 2.55415L3.80173 13.6783C3.60825 13.8712 3.46516 14.1088 3.38506 14.37L2.28423 17.9967C2.26269 18.0687 2.26107 18.1453 2.27952 18.2182C2.29798 18.2911 2.33583 18.3577 2.38906 18.4108C2.44229 18.464 2.50891 18.5017 2.58186 18.52C2.65481 18.5384 2.73136 18.5366 2.8034 18.515L6.4309 17.415C6.69187 17.3356 6.92937 17.1934 7.12256 17.0008L18.2451 5.87665Z" stroke="#3B82F6" stroke-width="2" stroke-linecap="round" stroke-linejoin="round"/>
<path d="M13.1 4.36664L16.4334 7.69997" stroke="#3B82F6" stroke-width="2" stroke-linecap="round" stroke-linejoin="round"/>
</g>
<defs>
<clipPath id="clip0_1_71">
<rect width="20" height="20" fill="white" transform="translate(0.600037 0.199982)"/>
</clipPath>
</defs>
</svg>
