<svg width="21" height="21" viewBox="0 0 21 21" fill="none" xmlns="http://www.w3.org/2000/svg">
<path d="M6.64996 3.95831L14.15 8.24998" stroke="white" stroke-width="2" stroke-linecap="round" stroke-linejoin="round"/>
<path d="M17.9 7.06665C17.8997 6.77438 17.8225 6.48733 17.6762 6.23429C17.53 5.98125 17.3197 5.77112 17.0666 5.62498L11.2333 2.29165C10.9799 2.14537 10.6925 2.06836 10.4 2.06836C10.1074 2.06836 9.82 2.14537 9.56663 2.29165L3.7333 5.62498C3.48018 5.77112 3.26995 5.98125 3.12368 6.23429C2.97742 6.48733 2.90026 6.77438 2.89996 7.06665V13.7333C2.90026 14.0256 2.97742 14.3126 3.12368 14.5657C3.26995 14.8187 3.48018 15.0288 3.7333 15.175L9.56663 18.5083C9.82 18.6546 10.1074 18.7316 10.4 18.7316C10.6925 18.7316 10.9799 18.6546 11.2333 18.5083L17.0666 15.175C17.3197 15.0288 17.53 14.8187 17.6762 14.5657C17.8225 14.3126 17.8997 14.0256 17.9 13.7333V7.06665Z" stroke="white" stroke-width="2" stroke-linecap="round" stroke-linejoin="round"/>
<path d="M3.14996 6.23334L10.4 10.4L17.65 6.23334" stroke="white" stroke-width="2" stroke-linecap="round" stroke-linejoin="round"/>
<path d="M10.4 18.7333V10.4" stroke="white" stroke-width="2" stroke-linecap="round" stroke-linejoin="round"/>
</svg>
