<svg width="21" height="21" viewBox="0 0 21 21" fill="none" xmlns="http://www.w3.org/2000/svg">
<path d="M13.7333 17.9V16.2333C13.7333 15.3493 13.3821 14.5014 12.757 13.8763C12.1319 13.2512 11.284 12.9 10.4 12.9H5.39998C4.51593 12.9 3.66808 13.2512 3.04296 13.8763C2.41784 14.5014 2.06665 15.3493 2.06665 16.2333V17.9" stroke="white" stroke-width="2" stroke-linecap="round" stroke-linejoin="round"/>
<path d="M7.89998 9.56666C9.74093 9.56666 11.2333 8.07428 11.2333 6.23333C11.2333 4.39238 9.74093 2.89999 7.89998 2.89999C6.05903 2.89999 4.56665 4.39238 4.56665 6.23333C4.56665 8.07428 6.05903 9.56666 7.89998 9.56666Z" stroke="white" stroke-width="2" stroke-linecap="round" stroke-linejoin="round"/>
<path d="M18.7333 17.9V16.2333C18.7327 15.4948 18.4869 14.7773 18.0344 14.1936C17.5819 13.6099 16.9484 13.193 16.2333 13.0083" stroke="white" stroke-width="2" stroke-linecap="round" stroke-linejoin="round"/>
<path d="M13.7333 3.00833C14.4503 3.19192 15.0858 3.60892 15.5396 4.19359C15.9935 4.77826 16.2398 5.49736 16.2398 6.2375C16.2398 6.97764 15.9935 7.69673 15.5396 8.28141C15.0858 8.86608 14.4503 9.28308 13.7333 9.46666" stroke="white" stroke-width="2" stroke-linecap="round" stroke-linejoin="round"/>
</svg>
